<?xml version="1.0" encoding="utf-8"?>
<!-- Generator: Adobe Illustrator 27.9.0, SVG Export Plug-In . SVG Version: 6.00 Build 0)  -->
<svg version="1.1" id="Layer_1" xmlns="http://www.w3.org/2000/svg" xmlns:xlink="http://www.w3.org/1999/xlink" x="0px" y="0px"
	 viewBox="0 0 595.3 595.3" style="enable-background:new 0 0 595.3 595.3;" xml:space="preserve">
<style type="text/css">
	.st0{fill:#FFFFFF;}
</style>
<g>
	<path class="st0" d="M216.2,42.1c54.3,0,108.7,0,163,0c2.1,0.3,4.2,0.6,6.4,0.8c16.7,1.4,33.6,1.8,50.1,4.4
		c61.9,9.6,106.8,56.5,114.5,118.5c1,8,2,16,3,24.1c0,70.5,0,141.1,0,211.6c-0.3,1.6-0.7,3.2-0.9,4.8c-1.1,9.6-1.8,19.2-3.2,28.7
		c-8.8,56.9-50.9,100.6-107.5,112.2c-25.5,5.2-51.3,5.5-77.1,5.8c-44.3,0.4-88.7,0.4-133,0c-25.8-0.3-51.7-0.3-77.1-5.9
		c-58.1-12.8-97-53.3-107.4-111.6c-4.2-23.4-4.6-47-4.7-70.6c-0.3-44.7-0.6-89.5,0.1-134.2c0.4-23.9,1.6-47.9,5.1-71.5
		c5.2-35,22.2-64.1,50.6-85.8c24.9-19.1,53.9-26.8,84.6-29.2C194,43.3,205.1,42.8,216.2,42.1z M298.3,507.9c0-0.3,0-0.6,0-0.9
		c18.5,0,37,0.4,55.5-0.1c25.6-0.6,51.4,0.4,76.7-4.7c36.5-7.4,60.6-28.7,70.9-64.9c4.8-17,5.5-34.4,5.8-51.9
		c0.6-42.7,1.2-85.5,0.7-128.2c-0.3-28.4-1.1-56.9-3.9-85.1c-3.9-39.7-29.4-67.5-68-77.4c-21.2-5.4-42.9-5.4-64.5-5.6
		c-42.3-0.5-84.7-0.3-127-0.2c-25.3,0.1-50.7-0.4-75.7,4.1c-39,7-65.2,29-73.9,68c-3.9,17.5-5.2,35.9-5.4,53.9
		c-0.7,55.2-0.5,110.4-0.1,165.6c0.1,15.9,1.5,31.9,4,47.6c4.1,26.2,16.9,47.4,39.8,61.6c16.8,10.4,35.7,14.5,55.2,15.2
		C225,506.4,261.7,507,298.3,507.9z"/>
	<path class="st0" d="M429.9,297.8c-0.2,72.4-59.4,131.4-131.7,131.3c-72.6-0.1-132-59.6-131.7-131.9c0.3-72.3,59.9-131.5,132-131
		C371.1,166.6,430.1,225.6,429.9,297.8z M298.2,382.6c47.2,0,85.1-37.8,85.2-84.8c0.1-47.1-37.8-85-84.9-85.1
		c-47.4-0.1-85.4,37.7-85.4,85.1C213.1,344.8,251,382.6,298.2,382.6z"/>
	<path class="st0" d="M434.6,191.8c-17.1,0-30.4-13.6-30.4-30.9c0-17,14-30.7,30.9-30.5c17.1,0.2,30.7,14.1,30.5,31
		C465.5,178.5,451.8,191.8,434.6,191.8z"/>
</g>
</svg>
