<?xml version="1.0" encoding="utf-8"?>
<!-- Generator: Adobe Illustrator 27.9.0, SVG Export Plug-In . SVG Version: 6.00 Build 0)  -->
<svg version="1.1" id="Layer_1" xmlns="http://www.w3.org/2000/svg" xmlns:xlink="http://www.w3.org/1999/xlink" x="0px" y="0px"
	 viewBox="0 0 595.3 595.3" style="enable-background:new 0 0 595.3 595.3;" xml:space="preserve">
<style type="text/css">
	.st0{fill:#FFFFFF;}
</style>
<path class="st0" d="M314.7,555.4c-11.4,0-22.8,0-34.2,0c-6.3-0.8-12.6-1.5-18.8-2.4c-50.3-7.4-95-27.4-133.2-61
	c-47.2-41.5-75.9-93.3-85.7-155.5c-1.1-7.2-2-14.5-3-21.8c0-11.4,0-22.8,0-34.2c0.8-6.1,1.4-12.3,2.3-18.4
	c7.4-50.4,26.9-95.5,61-133.3c65.2-72.3,146.6-100.9,242.4-84.3c63.5,11,115.3,43.6,155,94.3c44.8,57.2,62,122.5,52.5,194.4
	c-6.7,51-27.7,96-61.9,134.5c-41.3,46.6-92.9,75-154.6,84.7C329.3,553.5,322,554.4,314.7,555.4z M246.1,182.2
	c-26,0-63.1,4.8-99.9,13c-11.3,2.5-18.9,13.5-16.6,25.9c2.1,10.9,12.5,16.4,25.2,13.6c29.2-6.6,58.6-10.8,88.5-11.9
	c39-1.4,77.3,2.5,115.3,11.3c32.1,7.5,62.7,19,92.4,33.3c11,5.3,21.4,0.8,26.7-10.9c4.4-9.6,0.2-20.3-9.9-25.3
	C401.6,198.5,331.6,182.2,246.1,182.2z M257.5,322.6c13.4,0.9,26.8,1.3,40.2,2.7c34.8,3.8,68.4,12.6,100.6,26.7
	c7.8,3.4,15.4,7.3,23.2,10.9c6.8,3.1,10.3,2.3,14.9-3.6c2.3-3,4.5-6.3,6.3-9.7c4.8-8.9,2-18-6.9-22.6
	c-48.2-24.8-99.3-38.9-153.3-42.4c-40.6-2.6-80.7,1.2-120.2,11.1c-11.7,2.9-16,7.5-18,19.7c-2.3,14,7.5,23.3,21.4,19.7
	C195.7,327.3,226.4,323.2,257.5,322.6z M246.7,378.8c-19.3-0.2-48,4.7-76.2,12.4c-4.8,1.3-8.1,3.9-9.7,8.5c-1,2.7-1.7,5.4-2.2,8.2
	c-2.9,15,4.9,22.5,19.5,18.3c21.7-6.3,43.7-9.9,66.2-11.1c35.3-1.8,69.6,2.8,102.9,14.4c15.6,5.5,30.5,12.9,45.6,19.6
	c10.5,4.7,19.6-0.8,19.8-12.4c0-3.5-0.4-7-1.1-10.4c-1.1-5.3-3.9-9.4-9.3-11.7c-7.1-3.1-13.8-6.9-20.8-10
	C341.6,387.2,300,378.6,246.7,378.8z"/>
</svg>
