<?xml version="1.0" encoding="utf-8"?>
<!-- Generator: Adobe Illustrator 27.9.0, SVG Export Plug-In . SVG Version: 6.00 Build 0)  -->
<svg version="1.1" id="Layer_1" xmlns="http://www.w3.org/2000/svg" xmlns:xlink="http://www.w3.org/1999/xlink" x="0px" y="0px"
	 viewBox="0 0 595.3 595.3" style="enable-background:new 0 0 595.3 595.3;" xml:space="preserve">
<style type="text/css">
	.st0{fill:#FFFFFF;}
</style>
<path class="st0" d="M555.5,288.5c0,7.3,0,14.6,0,21.9c-0.1,0.8-0.3,1.7-0.4,2.5c-0.7,7.6-1.2,15.3-2.2,22.9
	c-7.2,50-27.3,94.3-60.5,132.3c-40.2,46.1-90.6,74.4-150.9,85.2c-3.5,0.6-3.5,0.6-3.5-2.9c0-57.6,0-115.3,0-172.9
	c0-3.7,0-3.7,3.6-3.7c17.8,0,35.7,0,53.5,0c2.3,0,3.1-0.7,3.5-2.9c3.4-22.8,6.9-45.6,10.4-68.3c0.5-3.4,0.5-3.4-3-3.4
	c-21.6,0-43.2,0-64.9,0c-3.1,0-3.1,0-3.1-3.1c0-15,0-29.9,0-44.9c0-2.6,0.2-5.3,0.5-7.9c1.7-15.4,10.9-26.6,25.6-30.5
	c4.8-1.3,9.9-1.9,14.8-2c10.2-0.3,20.5-0.2,30.7-0.1c2.1,0,2.9-0.6,2.9-2.8c-0.1-19.3-0.1-38.7,0-58c0-2-0.5-3-2.7-3.2
	c-13.4-1.3-26.7-3-40.1-4.1c-14.3-1.1-28.6-0.8-42.7,2.5c-29.3,6.9-50.3,23.6-61.7,51.8c-5.4,13.4-7.7,27.6-7.9,42
	c-0.2,19.1,0,38.2-0.1,57.4c0,3.1,0,3.1-3.1,3.1c-19.6,0-39.2,0-58.9,0c-3.4,0-3.4,0-3.4,3.4c0,22.5,0,45,0,67.5
	c0,3.7,0,3.7,3.8,3.7c19.5,0,39.1,0,58.6,0c2.8,0,2.9,0.1,2.9,2.9c0,0.5,0,1,0,1.5c0,57.2,0,114.4,0,171.6c0,0.6-0.1,1.2,0,1.7
	c0.2,1.8-0.6,2.3-2.3,1.9c-5-1-10-1.8-15-3c-46.2-10.7-86.4-32.6-120.8-65.2c-60.8-57.7-89.9-144.2-76.2-226.9
	c9.7-58.4,35.8-108.3,79.5-148.2c58.5-53.5,127.8-75.8,206.5-66.8c58.3,6.7,108.4,31.5,150,72.8c41.9,41.6,66.5,91.9,74.3,150.5
	C554.4,274,554.8,281.3,555.5,288.5z"/>
</svg>
