<?xml version="1.0" encoding="utf-8"?>
<!-- Generator: Adobe Illustrator 27.8.1, SVG Export Plug-In . SVG Version: 6.00 Build 0)  -->
<svg version="1.1" id="Layer_1" xmlns="http://www.w3.org/2000/svg" xmlns:xlink="http://www.w3.org/1999/xlink" x="0px" y="0px"
	 viewBox="0 0 589.5 75.3" style="enable-background:new 0 0 589.5 75.3;" xml:space="preserve">
<style type="text/css">
	.st0{fill:#FFFFFF;}
</style>
<g>
	<path d="M428.4,0.7c24.8,0,49.3,0,74,0c0,3.4,0,6.6,0,10.3c-21.1,0-42,0-63.3,0c0,7.2,0,13.9,0,21.3c21,0,42,0,63.3,0
		c0,3.7,0,6.8,0,10.6c-21,0-42.1,0-63.4,0c0,7.4,0,14.1,0,21.3c21.1,0,42,0,63.3,0c0,3.7,0,6.9,0,10.4c-24.6,0-49.2,0-74,0
		C428.4,49.9,428.4,25.6,428.4,0.7z"/>
	<path d="M87,0.7c24.8,0,49.3,0,74,0c0,3.5,0,6.7,0,10.4c-21.2,0-42.1,0-63.3,0c0,7.2,0,13.9,0,21.1c21,0,42,0,63.3,0
		c0,3.7,0,6.9,0,10.7c-21,0-41.9,0-63.2,0c0,7.2,0,14,0,21.3c21,0,42,0,63.3,0c0,3.7,0,6.8,0,10.3c-24.6,0-49.2,0-74,0
		C87,49.9,87,25.5,87,0.7z"/>
	<path d="M514,0.7c24.6,0,49,0,73.7,0c0,3.5,0,6.7,0,10.4c-21.2,0-42.1,0-63.4,0c0,17.8,0,35.2,0,52.9c17.6,0,35,0,52.8,0
		c0-6.7,0-13.4,0-20.8c-10.3,0-20.7,0-31.3,0c0-3.8,0-7,0-10.4c13.8,0,27.7,0,41.8,0c0,13.9,0,27.6,0,41.8c-24.5,0-48.9,0-73.7,0
		C514,50,514,25.4,514,0.7z"/>
	<path d="M417,74.6c-24.9,0-49.4,0-74,0c0-24.7,0-49.1,0-73.8c3.3,0,6.4,0,10.1,0c0,21,0,41.9,0,63.1c7.4,0,14.1,0,21.5,0
		c0-20.9,0-41.9,0-63.2c3.8,0,6.9,0,10.6,0c0,21.1,0,42.1,0,63.2c7.4,0,14.1,0,21.4,0c0-20.9,0-41.8,0-63.1c3.7,0,6.9,0,10.5,0
		C417,25.3,417,49.7,417,74.6z"/>
	<path d="M75.6,74.6c-3.4,0-6.4,0-9.9,0c0-21.1,0-42,0-63.2c-7.4,0-14.1,0-21.5,0c0,20.9,0,41.8,0,63c-3.6,0-6.7,0-10.4,0
		c0-20.9,0-41.8,0-63c-7.5,0-14.4,0-21.7,0c0,20.9,0,41.7,0,62.9c-3.6,0-6.8,0-10.2,0c0-24.6,0-49,0-73.7c24.7,0,49.1,0,73.8,0
		C75.6,25.4,75.6,49.8,75.6,74.6z"/>
	<path d="M270,37.7c18.8,8.1,36.7,15.8,54.6,23.4c8.3,3.6,8.4,3.5,6.7,13.3c-21-8.9-41.8-17.8-63.3-27c0,9.3,0,17.9,0,26.9
		c-3.6,0-6.8,0-10.1,0c0-24.6,0-49.1,0-73.7c3.3,0,6.2,0,9.7,0c0,8.7,0,17.4,0,27.3c21.7-9.2,42.5-18.1,63.4-27
		c2.4,8.1,1.7,9.7-5.2,12.7c-16.8,7.2-33.6,14.4-50.5,21.6C273.8,35.9,272.4,36.6,270,37.7z"/>
	<path d="M182.6,64.4c21.8,0,42.7,0,63.8,0c0,3.5,0,6.6,0,10.1c-24.7,0-49.3,0-74.3,0c0-24.6,0-49,0-73.7c3.5,0,6.7,0,10.4,0
		C182.6,21.8,182.6,42.7,182.6,64.4z"/>
	<path d="M428.4,0.7c24.8,0,49.3,0,74,0c0,3.4,0,6.6,0,10.3c-21.1,0-42,0-63.3,0c0,7.2,0,13.9,0,21.3c21,0,42,0,63.3,0
		c0,3.7,0,6.8,0,10.6c-21,0-42.1,0-63.4,0c0,7.4,0,14.1,0,21.3c21.1,0,42,0,63.3,0c0,3.7,0,6.9,0,10.4c-24.6,0-49.2,0-74,0
		C428.4,49.9,428.4,25.6,428.4,0.7z"/>
	<path d="M87,0.7c24.8,0,49.3,0,74,0c0,3.5,0,6.7,0,10.4c-21.2,0-42.1,0-63.3,0c0,7.2,0,13.9,0,21.1c21,0,42,0,63.3,0
		c0,3.7,0,6.9,0,10.7c-21,0-41.9,0-63.2,0c0,7.2,0,14,0,21.3c21,0,42,0,63.3,0c0,3.7,0,6.8,0,10.3c-24.6,0-49.2,0-74,0
		C87,49.9,87,25.5,87,0.7z"/>
	<path d="M514,0.7c24.6,0,49,0,73.7,0c0,3.5,0,6.7,0,10.4c-21.2,0-42.1,0-63.4,0c0,17.8,0,35.2,0,52.9c17.6,0,35,0,52.8,0
		c0-6.7,0-13.4,0-20.8c-10.3,0-20.7,0-31.3,0c0-3.8,0-7,0-10.4c13.8,0,27.7,0,41.8,0c0,13.9,0,27.6,0,41.8c-24.5,0-48.9,0-73.7,0
		C514,50,514,25.4,514,0.7z"/>
	<path d="M417,74.6c-24.9,0-49.4,0-74,0c0-24.7,0-49.1,0-73.8c3.3,0,6.4,0,10.1,0c0,21,0,41.9,0,63.1c7.4,0,14.1,0,21.5,0
		c0-20.9,0-41.9,0-63.2c3.8,0,6.9,0,10.6,0c0,21.1,0,42.1,0,63.2c7.4,0,14.1,0,21.4,0c0-20.9,0-41.8,0-63.1c3.7,0,6.9,0,10.5,0
		C417,25.3,417,49.7,417,74.6z"/>
	<path d="M75.6,74.6c-3.4,0-6.4,0-9.9,0c0-21.1,0-42,0-63.2c-7.4,0-14.1,0-21.5,0c0,20.9,0,41.8,0,63c-3.6,0-6.7,0-10.4,0
		c0-20.9,0-41.8,0-63c-7.5,0-14.4,0-21.7,0c0,20.9,0,41.7,0,62.9c-3.6,0-6.8,0-10.2,0c0-24.6,0-49,0-73.7c24.7,0,49.1,0,73.8,0
		C75.6,25.4,75.6,49.8,75.6,74.6z"/>
	<path d="M270,37.7c18.8,8.1,36.7,15.8,54.6,23.4c8.3,3.6,8.4,3.5,6.7,13.3c-21-8.9-41.8-17.8-63.3-27c0,9.3,0,17.9,0,26.9
		c-3.6,0-6.8,0-10.1,0c0-24.6,0-49.1,0-73.7c3.3,0,6.2,0,9.7,0c0,8.7,0,17.4,0,27.3c21.7-9.2,42.5-18.1,63.4-27
		c2.4,8.1,1.7,9.7-5.2,12.7c-16.8,7.2-33.6,14.4-50.5,21.6C273.8,35.9,272.4,36.6,270,37.7z"/>
	<path d="M182.6,64.4c21.8,0,42.7,0,63.8,0c0,3.5,0,6.6,0,10.1c-24.7,0-49.3,0-74.3,0c0-24.6,0-49,0-73.7c3.5,0,6.7,0,10.4,0
		C182.6,21.8,182.6,42.7,182.6,64.4z"/>
</g>
</svg>
