<?xml version="1.0" encoding="utf-8"?>
<!-- Generator: Adobe Illustrator 27.9.0, SVG Export Plug-In . SVG Version: 6.00 Build 0)  -->
<svg version="1.1" id="Layer_1" xmlns="http://www.w3.org/2000/svg" xmlns:xlink="http://www.w3.org/1999/xlink" x="0px" y="0px"
	 viewBox="0 0 595.3 595.3" style="enable-background:new 0 0 595.3 595.3;" xml:space="preserve">
<style type="text/css">
	.st0{fill:#FFFFFF;}
</style>
<path class="st0" d="M4.6,483.7C69,489,127.2,473.3,179,433.8c-25.2-2-48.2-9.9-68.2-25.2c-20-15.3-34.2-34.8-41.9-57.9
	c8.7,0,17.2,0.4,25.8-0.1c8.5-0.5,16.9-1.8,25.3-3.3c-62.5-16.4-94.8-70.7-93.8-119.6c8.4,3.2,16.5,6.8,25,9.2
	c8.6,2.4,17.5,3.6,26.9,4.5c-24.5-19.4-41.3-43.4-48-73.8c-6.8-30.5-1.8-59.2,13.4-87c65.3,76.9,147.7,119.4,247.7,126.2
	c-0.3-12.3-1.6-24.2-0.8-35.9c2.7-39.9,21.1-71.4,54.6-92.9c48.8-31.4,107.8-25,150,15.1c2.6,2.5,4.8,3.3,8.5,2.4
	c23.1-5.3,45.1-13.3,65.8-24.9c1.6-0.9,3.3-1.6,5.9-2.9c-9.2,28.2-26.3,49-49.7,65.3c22.5-2.3,43.7-8.6,65.2-16.1
	c-4.4,5.8-8.5,11.8-13.2,17.5c-12.4,15.2-26.5,28.7-42.1,40.7c-2,1.5-3.7,4.9-3.6,7.5c0.9,103.9-35.7,192.6-110.1,264.9
	c-45.4,44.1-100.2,71.1-162.3,83.2c-33.3,6.5-66.9,8.5-100.7,5.6C103.1,531.2,51.7,514.1,4.6,483.7z"/>
</svg>
