<?xml version="1.0" encoding="utf-8"?>
<!-- Generator: Adobe Illustrator 27.9.0, SVG Export Plug-In . SVG Version: 6.00 Build 0)  -->
<svg version="1.1" id="Layer_1" xmlns="http://www.w3.org/2000/svg" xmlns:xlink="http://www.w3.org/1999/xlink" x="0px" y="0px"
	 viewBox="0 0 1095.6 595.3" style="enable-background:new 0 0 1095.6 595.3;" xml:space="preserve">
<style type="text/css">
	.st0{fill:#FFFFFF;}
</style>
<g>
	<path class="st0" d="M25.7,393.9c2.1-12.6,4.2-25.2,6.2-37.8c0.4-2.3,0.1-4.9,1-7c0.9-2.3,2.8-4.1,4.2-6.2c1.7,2.1,4.3,4,4.9,6.4
		c9,36.5,9.6,73,0,109.5c-0.6,2.4-3.2,4.3-4.8,6.4c-1.5-2.3-4.1-4.5-4.5-7.1c-1.9-12-3.2-24.2-4.9-36.3c-0.4-2.6-1.4-5.1-2.1-7.6
		C25.7,407.5,25.7,400.7,25.7,393.9z"/>
	<path class="st0" d="M892.2,277c50.8-17.7,96.6-10.9,135.5,25c38.6,35.6,51.2,80.6,36.1,130.8c-15.2,50.5-50.9,80.3-103.1,89.6
		c-7.3,1.3-14.8,1.8-22.3,1.8c-115.5,0.1-230.9,0.1-346.4,0.1c-15.9,0-20.9-4.7-20.9-20.4c-0.1-132.4,0.1-264.9-0.2-397.3
		c0-11.4,4.8-17,15.1-20.8c135.9-51.2,284.7,37.7,304.1,181.8C890.5,270.5,891.4,273.4,892.2,277z"/>
	<path class="st0" d="M565.7,267.4c0,45.2,0.8,90.4-0.3,135.5c-0.8,35.3-3.8,70.5-6,105.8c-0.6,9.2-6.9,15.9-14.6,15.2
		c-9.2-0.8-13.7-6.4-14-15.6c-1.7-51.2-5-102.5-4.8-153.7c0.3-77.1,3-154.2,4.7-231.3c0.1-3.1-0.8-6.8,0.6-9
		c3.1-4.6,6.8-10.2,11.5-12.1c6.6-2.5,12.7,1.6,15.1,8.5c1.3,3.7,1.4,8,1.5,12c1.1,48.2,2,96.5,3,144.7
		C563.6,267.4,564.6,267.4,565.7,267.4z"/>
	<path class="st0" d="M487.7,279.7c0-43.8,0-87.6,0-131.4c0-2.4,0.2-4.8,0.2-7.1c0.3-8.7,4.2-14.5,13.5-14.4
		c9.3,0.1,13,6.2,13.3,14.8c0.6,21.1,1.1,42.1,1.5,63.2c1.4,65.5,3.7,131.1,3.8,196.6c0.1,36.3-3.4,72.6-5.3,108.9
		c-0.4,8.1-4.5,13.7-13.1,13.9c-8.7,0.2-13-4.9-13.5-13.3c-1.3-21.7-3.1-43.4-3.3-65.1c-0.5-55.3-0.2-110.7-0.2-166
		C485.6,279.7,486.6,279.7,487.7,279.7z"/>
	<path class="st0" d="M444.2,308.2c0-39.4,0-78.7,0-118.1c0-2.4,0.1-4.8,0.4-7.1c0.9-8.1,4.5-13.8,13.5-13.2
		c8.3,0.5,11.5,6.3,11.8,13.9c0.7,19.7,1.2,39.3,1.8,59c1.4,48.2,3.9,96.3,3.7,144.5c-0.2,41.3-3.5,82.7-5.5,124
		c-0.4,7.3-4.2,12.4-11.9,12.8c-8.3,0.5-12.7-4.7-13.2-12.4c-1.3-19.3-2.8-38.6-3-57.9c-0.4-48.5-0.1-97-0.1-145.5
		C442.5,308.2,443.3,308.2,444.2,308.2z"/>
	<path class="st0" d="M431.2,301c0,38,0.8,76.1-0.2,114.1c-0.9,32.2-3.9,64.4-5.9,96.6c-0.4,7.1-3.9,11.9-11,12.3
		c-7.3,0.5-11.5-4.2-12.1-11.1c-1.3-15.2-1.8-30.5-3-45.7c-5.7-71.3-0.4-142.5,0.6-213.8c0.3-22.8,1.1-45.5,1.6-68.2
		c0.1-3.7,0.2-7.5,0.6-11.2c0.7-6.9,4.4-11.9,11.5-11.8c7.6,0.1,11.4,5,11.7,12.7c0.5,13.6,1.3,27.1,1.4,40.7
		c0.2,28.5,0.1,57,0.1,85.5C428.1,301,429.7,301,431.2,301z"/>
	<path class="st0" d="M355.5,303.3c1.3-43.1,2.5-86.2,3.8-129.3c0.1-2.7-0.6-6.2,0.8-8c2.9-3.5,6.8-7.9,10.5-8.2
		c3-0.2,8.3,4.6,9.3,8.1c1.9,6.4,1.5,13.4,1.7,20.2c2.2,70.9,5.6,141.9,6.1,212.9c0.3,37.6-4.5,75.2-6.9,112.8
		c-0.4,6.9-3,12.3-10.6,12.3c-7.6,0.1-10.4-5.2-10.8-12.1c-1.8-29.1-4.6-58.3-5.2-87.4c-0.9-40.4-0.2-80.8-0.2-121.2
		C354.5,303.3,355,303.3,355.5,303.3z"/>
	<path class="st0" d="M312.5,323.3c2-61,3.4-103.1,4.7-145.2c0.2-6.9,2.2-12.5,10.2-12.3c7.9,0.2,9.7,6.2,9.9,12.9
		c1.4,40.1,2.7,80.1,4.1,120.2c1.2,32.9,3.1,65.8,3.2,98.8c0.1,22-2.4,44-3.8,66c-1,15.2-2.5,30.5-3.4,45.7
		c-0.4,7.3-1.7,14.5-10.6,14.5c-8.2-0.1-9.3-6.8-9.9-13.9C311.2,441.4,308.2,373,312.5,323.3z"/>
	<path class="st0" d="M294.4,308.4c9.6,68.6,5.2,137-1.7,205.3c-0.6,6.2-2.8,11.7-9.4,10.2c-3.5-0.8-8.1-6.3-8.5-10.1
		c-7.9-74.8-7.9-149.7-3.7-224.8c1.6-28.5,2.2-57,3.3-85.5c0.1-3.1-1-6.8,0.4-9c2.3-3.8,6.2-6.7,9.4-10c2.8,3.3,7.5,6.3,8,10
		c1.6,11.7,2,23.7,2.1,35.6C294.6,256.2,294.4,282.3,294.4,308.4z"/>
	<path class="st0" d="M225.9,404.6c2.8-59.5,5.3-114.1,7.9-168.6c0.3-5.9,1.6-12.1,8.6-10.8c3.2,0.6,7.3,6.8,7.5,10.6
		c3.1,48.4,7.5,96.8,7.6,145.3c0.1,44.3-4.5,88.5-7.6,132.8c-0.2,3.5-4.9,6.8-7.5,10.2c-2.8-2.9-7.8-5.6-8.1-8.7
		C230.9,476.8,228.3,438.2,225.9,404.6z"/>
	<path class="st0" d="M217.2,404.8c-3.4,36.6-6.6,73.1-10.3,109.5c-0.3,3-4.4,5.5-6.8,8.3c-2.4-2.7-6.7-5.2-7-8.1
		c-5.7-60.8-12.3-121.5-3-182.5c1.4-9.4,1.1-19,2.8-28.3c0.7-4.2,3.8-10.5,6.8-11.1c7-1.6,7.2,5.1,7.7,10.2
		c2.6,26.7,5.1,53.3,7.7,80C215.8,390.1,216.5,397.6,217.2,404.8z"/>
	<path class="st0" d="M175.1,405.4c-3.4,35.1-6.7,70.9-10.5,106.6c-0.3,3.1-4.1,5.9-6.3,8.8c-2.1-2.9-5.8-5.7-6.1-8.7
		c-3.4-35.4-7.8-70.9-8.7-106.4c-0.7-25.6,3.3-51.4,5.4-77.1c0.8-10.8,1.4-21.7,3.2-32.4c0.7-4.2,4.2-8,6.4-11.9
		c2.3,4,6.2,7.8,6.6,12c2.8,25.6,4.9,51.3,7.2,77C173.2,383.8,174.1,394.2,175.1,405.4z"/>
	<path class="st0" d="M133.5,405c-3,28.9-6.1,58.5-9.1,88.2c-0.6,5.4-0.4,10.9-1.7,16.2c-0.7,2.7-3.8,4.7-5.8,7
		c-1.8-2.4-5-4.7-5.3-7.3c-3-29.7-7.3-59.4-7.9-89.2c-0.5-29.4,2.7-58.8,4.5-88.2c0.7-11.8,1.7-23.7,3.4-35.4c0.4-2.9,3.7-5.4,5.7-8
		c1.9,2.5,5.1,4.9,5.4,7.6C126.5,332,129.9,368.1,133.5,405z"/>
	<path class="st0" d="M61.4,404.5c3.2-30.4,6.3-60.7,9.9-91.1c0.3-2.4,3.2-4.5,4.9-6.7c1.5,2.3,4.1,4.4,4.4,6.9
		c4.1,29.9,9.2,59.8,11.1,89.8c1,16.6-3.4,33.6-5.6,50.5c-1.7,13.1-3.4,26.2-5.5,39.3c-0.4,2.4-2.9,4.6-4.4,6.8
		c-1.7-2.1-4.7-4.1-5-6.4C67.7,463.9,64.6,434.2,61.4,404.5z"/>
</g>
</svg>
