<?xml version="1.0" encoding="utf-8"?>
<!-- Generator: Adobe Illustrator 27.9.0, SVG Export Plug-In . SVG Version: 6.00 Build 0)  -->
<svg version="1.1" id="Layer_1" xmlns="http://www.w3.org/2000/svg" xmlns:xlink="http://www.w3.org/1999/xlink" x="0px" y="0px"
	 viewBox="0 0 595.3 595.3" style="enable-background:new 0 0 595.3 595.3;" xml:space="preserve">
<style type="text/css">
	.st0{fill:#FFFFFF;}
</style>
<path class="st0" d="M494.5,162c-52.3-11.2-91.3-55.1-96.2-108.3V42.4h-87.9v349c-0.1,40.8-33.4,73.8-74.2,73.7
	c-23-0.1-44.6-10.9-58.6-29.2l-0.1,0l0.1,0c-24.7-32.5-18.4-78.8,14.1-103.5c19.2-14.5,44.2-18.9,67.1-11.6v-89.3
	c-88.4-12.2-169.9,49.5-182.1,137.9c-6.8,49.5,9.6,99.3,44.5,135c62.4,63.8,164.7,65,228.5,2.6c31.1-30.4,48.6-72,48.6-115.5V213
	c35.5,25.4,78.1,39,121.8,38.9v-87.4C511.5,164.6,502.9,163.7,494.5,162z"/>
</svg>
