<?xml version="1.0" encoding="utf-8"?>
<!-- Generator: Adobe Illustrator 27.9.0, SVG Export Plug-In . SVG Version: 6.00 Build 0)  -->
<svg version="1.1" id="Layer_1" xmlns="http://www.w3.org/2000/svg" xmlns:xlink="http://www.w3.org/1999/xlink" x="0px" y="0px"
	 viewBox="0 0 740.6 595.3" style="enable-background:new 0 0 740.6 595.3;" xml:space="preserve">
<style type="text/css">
	.st0{fill:#FFFFFF;}
</style>
<path class="st0" d="M715,191.7c0,70.7,0,141.4,0,212c-0.2,2.4-0.4,4.9-0.7,7.3c-1.5,18.3-6.5,35.7-14.8,52.1
	c-9,17.8-21.2,33.1-36.7,45.7c-26.1,21.3-56.1,32.6-89.7,32.7c-133.6,0.2-267.3,0.1-400.9,0.1c-2.7,0-5.4,0-8.1-0.1
	c-12.7-0.4-25.1-2.4-37.2-6.1c-23.8-7.4-44.4-19.9-61.6-38c-26.1-27.6-39.5-60.4-39.6-98.3c-0.3-67.5-0.1-135-0.1-202.4
	c0-2,0.1-3.9,0.2-5.9c0.9-20.3,5.9-39.7,15-57.8C50.3,114,63.2,98,79.8,84.9c22.7-18,48.5-28.2,77.4-30.6c2.8-0.2,5.7-0.4,8.5-0.6
	c136.7,0,273.4,0,410,0c0.5,0.1,1,0.2,1.5,0.2c7.7,0.9,15.4,1.3,23,2.8c29,5.8,53.9,19.4,74.5,40.7c22.5,23.3,35.6,51.2,39.4,83.4
	C714.5,184.4,714.7,188,715,191.7z M275.6,297.7c0,30.7,0,61.4,0,92c0,1.3,0.2,2.7,0.7,3.9c1.3,3.4,5.8,6,11.3,3.3
	c26.3-12.7,52.6-25.2,78.9-37.7c36-17.2,72-34.3,107.9-51.5c0.9-0.5,1.9-1,2.7-1.7c3.9-3.7,2.8-9.9-2.3-12.5
	c-8.2-4.2-16.5-8.4-24.8-12.5c-33.7-17.1-67.3-34.1-101-51.2c-20.5-10.4-41.1-20.7-61.5-31.2c-6.3-3.2-12.1,1.1-12.1,7.4
	C275.7,236.6,275.6,267.2,275.6,297.7z"/>
</svg>
